<svg version="1.2" xmlns="http://www.w3.org/2000/svg" viewBox="0 0 973 293" width="973" height="293">
	<title>download-on-the-app-store-flat-badge-seeklogo</title>
	<style>
		.s0 { fill: #a6a6a6 } 
		.s1 { fill: #000000 } 
		.s2 { fill: #ffffff } 
	</style>
	<g id="Layer 1">
		<g id="&lt;Group&gt;">
			<path id="&lt;Path&gt;" class="s0" d="m938.1 290.1h-900.9c-18.7 0-34.5-15.4-34.5-34.1v-219.3c0-18.7 15.8-34.6 34.5-34.6h900.9c18.7 0 32.6 15.9 32.6 34.6v219.3c0 18.7-14.4 34.1-33.1 34.1z"/>
			<path id="&lt;Path&gt;" class="s1" d="m965.6 256c0 15.2-12.3 27.5-27.5 27.5h-900.9c-15.2 0-27.5-12.3-27.5-27.5v-219.3c0-15.2 12.3-27.5 27.5-27.5h900.9c15.2 0 27.5 12.3 27.5 27.5v219.3z"/>
			<g id="&lt;Group&gt;">
				<g id="&lt;Group&gt;">
					<path id="&lt;Path&gt;" class="s2" d="m244.2 181.8c-0.2 0.7-3.8 13.3-12.8 26.1-7.5 11.2-15.4 22.2-27.9 22.4-12.2 0.3-16.3-7.1-30.3-7.1-14 0-18.4 6.9-30.1 7.4-11.9 0.4-21-12-28.8-23.2-15.6-22.7-27.7-64.1-11.4-92.3 7.8-13.8 22.2-22.7 37.6-22.9 11.9-0.3 23 8 30.3 8 7.2 0 20.9-9.9 35.1-8.4 5.9 0.1 22.7 2.3 33.5 18.1-0.9 0.5-20 11.8-19.8 34.9 0.2 27.8 24.3 36.9 24.6 37z"/>
					<path id="&lt;Path&gt;" class="s2" d="m169.4 89.7c-1.3-10.5 3.8-21.5 9.6-28.3 6.6-7.7 17.9-13.6 27-14 1.2 10.9-3.1 21.5-9.4 29.4-6.5 7.7-17 13.6-27.2 12.9z"/>
				</g>
			</g>
			<g id="&lt;Group&gt;">
				<path id="&lt;Compound Path&gt;" fill-rule="evenodd" class="s2" d="m388.5 229h-16.3l-9-28.1h-31l-8.5 28.1h-15.9l30.8-95.6h18.9zm-27.9-39.8l-8.1-24.9q-1.2-3.9-4.8-18h-0.3q-1.4 6.1-4.5 18l-7.9 24.9z"/>
				<path id="&lt;Compound Path&gt;" fill-rule="evenodd" class="s2" d="m467.6 193.7q0 17.6-9.5 27.8-8.6 9.1-21.2 9.1-13.6 0-19.5-9.8h-0.3v36.3h-15.3v-74.3q0-11.1-0.6-22.7h13.5l0.8 10.9h0.3q7.7-12.3 23.3-12.3 12.2 0 20.3 9.6 8.2 9.7 8.2 25.4zm-15.6 0.6q0-10.1-4.6-16.6-4.9-6.8-13.3-6.8-5.7 0-10.3 3.7-4.6 3.8-6 9.9-0.7 2.8-0.7 4.7v11.4q0 7.6 4.6 12.7 4.6 5.2 12 5.2 8.6 0 13.4-6.7 4.9-6.6 4.9-17.5z"/>
				<path id="&lt;Compound Path&gt;" fill-rule="evenodd" class="s2" d="m546.8 193.7q0 17.6-9.5 27.8-8.5 9.1-21.1 9.1-13.6 0-19.6-9.8h-0.3v36.3h-15.3v-74.3q0-11.1-0.5-22.7h13.4l0.9 10.9h0.3q7.6-12.3 23.2-12.3 12.2 0 20.4 9.6 8.1 9.7 8.1 25.4zm-15.6 0.6q0-10.1-4.5-16.6-5-6.8-13.4-6.8-5.6 0-10.2 3.7-4.6 3.8-6.1 9.9-0.7 2.8-0.7 4.7v11.4q0 7.6 4.6 12.7 4.6 5.2 12 5.2 8.7 0 13.5-6.7 4.8-6.6 4.8-17.5z"/>
				<path id="&lt;Compound Path&gt;" class="s2" d="m635.4 202.2q0 12.2-8.5 19.8-9.3 8.4-26 8.4-15.4 0-24.8-5.9l3.6-12.8q10 6.1 22.1 6.1 8.6 0 13.5-3.9 4.8-3.9 4.8-10.4 0-5.9-4-9.8-3.9-4-13.2-7.4-25.1-9.4-25.1-27.4 0-11.8 8.8-19.3 8.8-7.6 23.4-7.6 13.1 0 21.7 4.6l-3.8 12.4q-8.1-4.4-18.3-4.4-8.1 0-12.6 4-3.8 3.6-3.8 8.7 0 5.6 4.4 9.3 3.8 3.4 13.8 7.4 12.4 5 18.2 11.6 5.8 6.7 5.8 16.6z"/>
				<path id="&lt;Compound Path&gt;" class="s2" d="m686 171.6h-16.9v33.4q0 12.8 9 12.8 4.1 0 6.8-0.7l0.4 11.6q-4.5 1.7-11.9 1.7-9.1 0-14.2-5.5-5.1-5.5-5.1-18.6v-34.7h-10v-11.5h10v-12.6l15-4.6v17.2h16.9z"/>
				<path id="&lt;Compound Path&gt;" fill-rule="evenodd" class="s2" d="m762.1 194q0 15.9-9 26.1-9.5 10.5-25.3 10.5-15.1 0-24.1-10.1-9-10.1-9-25.4 0-16 9.2-26.2 9.3-10.2 25.1-10.2 15.1 0 24.3 10.1 8.8 9.7 8.8 25.2zm-15.8 0.5q0-9.6-4.2-16.4-4.8-8.2-13.7-8.2-9.2 0-14 8.2-4.2 6.8-4.1 16.7-0.1 9.5 4.1 16.3 4.9 8.3 13.9 8.3 8.7 0 13.7-8.4 4.3-7 4.3-16.5z"/>
				<path id="&lt;Compound Path&gt;" class="s2" d="m811.9 173.6q-2.3-0.5-4.8-0.5-8.1 0-12.5 6.1-3.8 5.4-3.8 13.6v36.2h-15.3l0.1-47.2q0-11.9-0.6-21.7h13.4l0.5 13.2h0.4q2.5-6.8 7.7-10.9 5.1-3.7 11.1-3.7 2.1 0 3.8 0.3z"/>
				<path id="&lt;Compound Path&gt;" fill-rule="evenodd" class="s2" d="m880.4 191.3q0 4.1-0.6 6.9h-45.9q0.2 10.2 6.6 15.6 5.8 4.8 15.1 4.8 10.2 0 18.5-3.2l2.4 10.6q-9.8 4.3-23.1 4.3-16 0-25.1-9.5-9.2-9.4-9.2-25.3 0-15.6 8.5-25.9 9-11.1 24.1-11.1 14.9 0 22.6 11.1 6.1 8.8 6.1 21.7zm-14.6-4q0.1-6.8-3-11.7-4-6.4-12.2-6.4-7.5 0-12.2 6.2-3.8 5-4.5 11.9z"/>
			</g>
			<g id="&lt;Group&gt;">
				<g id="&lt;Group&gt;">
					<path id="&lt;Compound Path&gt;" fill-rule="evenodd" class="s2" d="m355.5 74.7q0 12.6-7.6 19-7.1 6-20 6-6.4 0-11-0.6v-46.2q6-0.9 12.9-0.9 12.4 0 18.6 5.3 7.1 6.1 7.1 17.4zm-8 0.2q0-8.2-4.3-12.6-4.4-4.4-12.7-4.4-3.6 0-6.1 0.5v35.1q1.4 0.2 5.1 0.2 8.6 0 13.3-4.8 4.7-4.8 4.7-14z"/>
					<path id="&lt;Compound Path&gt;" fill-rule="evenodd" class="s2" d="m397.5 82q0 7.8-4.4 12.9-4.7 5.1-12.4 5.1-7.5 0-11.9-4.9-4.4-5-4.4-12.5 0-7.9 4.5-12.9 4.6-5 12.3-5 7.5 0 12 4.9 4.3 4.9 4.3 12.4zm-7.8 0.3q0-4.7-2-8-2.4-4.1-6.7-4.1-4.6 0-6.9 4.1-2.1 3.3-2.1 8.1 0 4.7 2.1 8.1 2.4 4 6.8 4 4.3 0 6.7-4.1 2.1-3.4 2.1-8.1z"/>
					<path id="&lt;Compound Path&gt;" class="s2" d="m453.9 65.4l-10.6 33.8h-6.8l-4.4-14.6q-1.7-5.6-2.8-11h-0.1q-1 5.6-2.7 11l-4.7 14.6h-6.9l-10-33.8h7.7l3.9 16.1q1.4 5.7 2.3 10.9h0.1q0.8-4.3 2.8-10.8l4.8-16.2h6.1l4.6 15.8q1.7 5.8 2.7 11.2h0.2q0.8-5.3 2.3-11.2l4.2-15.8z"/>
					<path id="&lt;Compound Path&gt;" class="s2" d="m492.9 99.2h-7.5v-19.3q0-9-6.8-9-3.3 0-5.4 2.5-2.1 2.4-2.1 5.8v20h-7.6v-24.1q0-4.5-0.2-9.7h6.6l0.3 5.3h0.2q1.4-2.5 3.9-4.1 3.1-1.9 6.9-1.9 4.7 0 7.8 3.1 3.9 3.7 3.9 11.2z"/>
					<path id="&lt;Compound Path&gt;" class="s2" d="m513.7 99.2h-7.5v-49.3h7.5z"/>
					<path id="&lt;Compound Path&gt;" fill-rule="evenodd" class="s2" d="m558 82q0 7.8-4.5 12.9-4.6 5.1-12.4 5.1-7.4 0-11.8-4.9-4.5-5-4.5-12.5 0-7.9 4.6-12.9 4.6-5 12.3-5 7.4 0 12 4.9 4.3 4.9 4.3 12.4zm-7.8 0.3q0-4.7-2-8-2.4-4.1-6.8-4.1-4.5 0-6.9 4.1-2 3.3-2 8.1 0 4.7 2 8.1 2.5 4 6.8 4 4.4 0 6.8-4.1 2.1-3.4 2.1-8.1z"/>
					<path id="&lt;Compound Path&gt;" fill-rule="evenodd" class="s2" d="m594.4 99.2h-6.7l-0.6-3.9h-0.2q-3.5 4.7-9.9 4.7-4.8 0-7.7-3.1-2.7-2.7-2.7-6.8 0-6.2 5.2-9.5 5.2-3.3 14.6-3.2v-0.6q0-6.7-7-6.7-5 0-8.8 2.5l-1.6-5q4.7-2.9 11.6-2.9 13.3 0 13.3 14v12.5q0 5.1 0.5 8zm-7.8-11.6v-5.2q-12.5-0.2-12.5 6.8 0 2.7 1.5 4 1.4 1.3 3.7 1.3 2.5 0 4.6-1.6 2.1-1.5 2.6-4 0.1-0.5 0.1-1.3z"/>
					<path id="&lt;Compound Path&gt;" fill-rule="evenodd" class="s2" d="m637.2 99.2h-6.7l-0.4-5.4h-0.2q-3.2 6.2-10.8 6.2-6.2 0-10.2-4.8-4-4.8-4-12.5 0-8.2 4.3-13.3 4.3-4.7 10.5-4.7 6.8 0 9.5 4.6h0.2v-19.4h7.5v40.2q0 5 0.3 9.1zm-7.8-14.2v-5.7q0-1.4-0.2-2.3-0.7-2.8-2.8-4.6-2.1-1.8-5-1.8-4.2 0-6.6 3.3-2.4 3.3-2.4 8.6 0 5 2.3 8.1 2.4 3.4 6.6 3.4 3.7 0 5.9-2.8 2.2-2.6 2.2-6.2z"/>
					<path id="&lt;Compound Path&gt;" fill-rule="evenodd" class="s2" d="m701.5 82q0 7.8-4.4 12.9-4.7 5.1-12.4 5.1-7.5 0-11.9-4.9-4.4-5-4.4-12.5 0-7.9 4.5-12.9 4.6-5 12.3-5 7.5 0 12 4.9 4.3 4.9 4.3 12.4zm-7.8 0.3q0-4.7-2-8-2.4-4.1-6.8-4.1-4.5 0-6.9 4.1-2 3.3-2 8.1 0 4.7 2 8.1 2.5 4 6.9 4 4.3 0 6.7-4.1 2.1-3.4 2.1-8.1z"/>
					<path id="&lt;Compound Path&gt;" class="s2" d="m742 99.2h-7.5v-19.3q0-9-6.9-9-3.3 0-5.4 2.5-2.1 2.4-2.1 5.8v20h-7.5v-24.1q0-4.5-0.3-9.7h6.6l0.4 5.3h0.2q1.3-2.5 3.9-4.1 3-1.9 6.8-1.9 4.7 0 7.9 3.1 3.9 3.7 3.9 11.2z"/>
					<path id="&lt;Compound Path&gt;" class="s2" d="m792.6 71h-8.3v16.5q0 6.2 4.4 6.2 2 0 3.4-0.3l0.2 5.7q-2.3 0.8-5.9 0.8-4.4 0-6.9-2.7-2.6-2.7-2.5-9.1v-17.1h-5v-5.6h5v-6.2l7.3-2.2v8.4h8.3z"/>
					<path id="&lt;Compound Path&gt;" class="s2" d="m832.5 99.2h-7.6v-19.2q0-9.1-6.8-9.1-5.2 0-7.2 5.3-0.3 1.1-0.3 2.7v20.3h-7.5v-49.3h7.5v20.4h0.1q3.6-5.6 10.2-5.6 4.7 0 7.7 3.1 3.9 3.8 3.9 11.3z"/>
					<path id="&lt;Compound Path&gt;" fill-rule="evenodd" class="s2" d="m873.5 80.7q0 2-0.2 3.4h-22.6q0.1 5 3.3 7.7 2.8 2.4 7.4 2.4 5 0 9.1-1.6l1.2 5.2q-4.8 2.1-11.4 2.1-7.9 0-12.3-4.7-4.5-4.6-4.5-12.4 0-7.7 4.1-12.7 4.4-5.5 11.9-5.5 7.3 0 11 5.5 3 4.3 3 10.6zm-7.1-1.9q0-3.4-1.5-5.8-1.9-3.1-6-3.1-3.7 0-6 3-1.8 2.5-2.2 5.9z"/>
				</g>
			</g>
		</g>
	</g>
</svg>