<svg version="1.2" xmlns="http://www.w3.org/2000/svg" viewBox="0 0 762 232" width="762" height="232">
	<title>get-it-on-google-play-badge-seeklogo</title>
	<defs>
		<linearGradient id="g1" x1="85.9" y1="14.4" x2="-8.4" y2="108.8" gradientUnits="userSpaceOnUse">
			<stop offset="0" stop-color="#3b97d2"/>
			<stop offset="0" stop-color="#3b98d2"/>
			<stop offset=".3" stop-color="#3abaeb"/>
			<stop offset=".5" stop-color="#3dc6f2"/>
			<stop offset=".8" stop-color="#4dc8eb"/>
			<stop offset="1" stop-color="#53c9e9"/>
		</linearGradient>
		<linearGradient id="g2" x1="189.6" y1="88" x2="58.1" y2="88" gradientUnits="userSpaceOnUse">
			<stop offset="0" stop-color="#fbe109"/>
			<stop offset=".4" stop-color="#fdbc0f"/>
			<stop offset=".8" stop-color="#f9a417"/>
			<stop offset="1" stop-color="#f89b1b"/>
		</linearGradient>
		<linearGradient id="g3" x1="125.6" y1="114.2" x2="-0.9" y2="240.7" gradientUnits="userSpaceOnUse">
			<stop offset="0" stop-color="#ee3748"/>
			<stop offset="1" stop-color="#c41d64"/>
		</linearGradient>
		<linearGradient id="g4" x1="28.1" y1="20.3" x2="84.6" y2="76.8" gradientUnits="userSpaceOnUse">
			<stop offset="0" stop-color="#32a171"/>
			<stop offset=".1" stop-color="#2fa871"/>
			<stop offset=".5" stop-color="#3fb970"/>
			<stop offset=".8" stop-color="#52bc6a"/>
			<stop offset="1" stop-color="#5bbe69"/>
		</linearGradient>
	</defs>
	<style>
		.s0 { opacity: 0;fill: #ffffff } 
		.s1 { fill: #000000 } 
		.s2 { fill: #a6a6a6 } 
		.s3 { fill: #ffffff;stroke: #ffffff;stroke-width: .4 } 
		.s4 { fill: #ffffff } 
		.s5 { fill: url(#g1) } 
		.s6 { fill: url(#g2) } 
		.s7 { fill: url(#g3) } 
		.s8 { fill: url(#g4) } 
		.s9 { opacity: .2;fill: #000000 } 
		.s10 { opacity: .1;fill: #000000 } 
		.s11 { opacity: .3;fill: #ffffff } 
	</style>
	<g id="Layer 1">
		<g id="&lt;Group&gt;">
			<g id="&lt;Group&gt;">
				<path id="&lt;Path&gt;" class="s0" d="m816.8 284.7h-871.6v-337.4h871.6z"/>
			</g>
			<g id="&lt;Group&gt;">
				<path id="&lt;Path&gt;" class="s1" d="m732.5 228.5h-703c-15.4 0-28.1-12.7-28.1-28.2v-168.7c0-15.4 12.7-28.1 28.1-28.1h703c15.4 0 28.1 12.7 28.1 28.1v168.7c0 15.5-12.7 28.2-28.1 28.2z"/>
			</g>
			<g id="&lt;Group&gt;">
				<g id="&lt;Group&gt;">
					<path id="&lt;Compound Path&gt;" fill-rule="evenodd" class="s2" d="m760.6 31.7v168.7c0 15.4-12.7 28.1-28.1 28.1h-703c-15.4 0-28.1-12.7-28.1-28.1v-168.7c0-15.5 12.7-28.2 28.1-28.2h703c15.4 0 28.1 12.7 28.1 28.2zm-731.1-23.7c-13 0-23.6 10.6-23.6 23.7v168.7c0 13 10.6 23.6 23.6 23.6h703c13 0 23.6-10.6 23.6-23.6v-168.7c0-13.1-10.6-23.7-23.6-23.7z"/>
				</g>
			</g>
			<g id="&lt;Group&gt;">
				<path id="&lt;Compound Path&gt;" class="s3" d="m268.1 61.1q0 7.1-4.2 11.3-4.8 5-12.4 5-7.3 0-12.4-5.1-5.1-5-5.1-12.5 0-7.5 5.1-12.6 5.1-5.1 12.4-5.1 3.6 0 6.9 1.5 3.3 1.4 5.3 3.7l-3 3q-3.3-4-9.2-4-5.3 0-9.2 3.7-3.9 3.8-3.9 9.8 0 6 3.9 9.7 3.9 3.7 9.2 3.7 5.6 0 9.4-3.7 2.5-2.5 2.8-6.9h-12.2v-4h16.3q0.3 1.3 0.3 2.5z"/>
				<path id="&lt;Compound Path&gt;" class="s3" d="m294 47h-15.4v10.7h13.9v4.1h-13.9v10.7h15.4v4.1h-19.7v-33.7h19.7z"/>
				<path id="&lt;Compound Path&gt;" class="s3" d="m312.3 76.6h-4.4v-29.6h-9.4v-4.1h23.2v4.1h-9.4z"/>
				<path id="&lt;Compound Path&gt;" class="s3" d="m338.5 76.6v-33.7h4.3v33.7z"/>
				<path id="&lt;Compound Path&gt;" class="s3" d="m362 76.6h-4.3v-29.6h-9.4v-4.1h23.2v4.1h-9.5z"/>
				<path id="&lt;Compound Path&gt;" fill-rule="evenodd" class="s3" d="m415.4 72.3q-5 5.1-12.4 5.1-7.4 0-12.4-5.1-5-5.1-5-12.5 0-7.4 5-12.5 5-5.2 12.4-5.2 7.3 0 12.3 5.2 5 5.1 5 12.5 0 7.4-4.9 12.5zm-21.6-2.8q3.8 3.7 9.2 3.7 5.4 0 9.1-3.7 3.8-3.8 3.8-9.7 0-5.9-3.8-9.7-3.7-3.8-9.1-3.8-5.4 0-9.2 3.8-3.7 3.8-3.7 9.7 0 5.9 3.7 9.7z"/>
				<path id="&lt;Compound Path&gt;" class="s3" d="m426.4 76.6v-33.7h5.3l16.4 26.2h0.2l-0.2-6.5v-19.7h4.3v33.7h-4.5l-17.2-27.5h-0.1l0.1 6.5v21z"/>
			</g>
			<path id="&lt;Compound Path&gt;" fill-rule="evenodd" class="s4" d="m408.6 149.8c0 13.7-10.8 23.9-24 23.9-13.3 0-24-10.2-24-23.9 0-13.9 10.7-24 24-24 13.2 0 24 10.1 24 24zm-10.5 0c0-8.6-6.3-14.5-13.5-14.5-7.3 0-13.5 5.9-13.5 14.5 0 8.5 6.2 14.5 13.5 14.5 7.2 0 13.5-6 13.5-14.5zm-41.9 0c0 13.7-10.8 23.9-24 23.9-13.2 0-24-10.2-24-23.9 0-13.9 10.8-24 24-24 13.2 0 24 10.1 24 24zm-10.5 0c0-8.6-6.2-14.5-13.5-14.5-7.2 0-13.5 5.9-13.5 14.5 0 8.5 6.3 14.5 13.5 14.5 7.3 0 13.5-6 13.5-14.5zm-41.6-16.6c0.3 1.8 0.5 4 0.5 6.3 0 7.6-2.1 17.1-8.8 23.8-6.5 6.8-14.8 10.4-25.9 10.4-20.5 0-37.7-16.7-37.7-37.2 0-20.4 17.2-37.1 37.7-37.1 11.3 0 19.4 4.4 25.5 10.2l-7.2 7.2c-4.3-4.1-10.2-7.3-18.3-7.3-14.9 0-26.6 12.1-26.6 27 0 15 11.7 27 26.6 27 9.7 0 15.2-3.9 18.8-7.4 2.9-2.9 4.8-7.1 5.5-12.8h-24.3v-10.1zm221.7 10.6l-32 13.2c2.5 4.8 6.3 7.3 11.6 7.3 5.4 0 9.1-2.7 11.8-6.7l8.2 5.5c-2.7 3.9-9 10.6-20 10.6-13.6 0-23.7-10.5-23.7-23.9 0-14.3 10.2-24 22.6-24 12.4 0 18.4 9.9 20.4 15.3zm-12.3-3.7c-1.2-2.9-4.7-5-8.9-5-5.3 0-12.7 4.7-12.5 13.9zm-47.3-38.2h10.5v70.3h-10.5zm-17.3 25.4h10v42.9c0 17.7-10.4 24.9-22.7 24.9-11.6 0-18.6-7.8-21.2-14.1l9.1-3.8c1.6 3.9 5.6 8.5 12.1 8.5 7.8 0 12.7-4.9 12.7-14v-3.5h-0.3c-2.4 2.9-6.9 5.4-12.6 5.4-12 0-22.9-10.4-22.9-23.8 0-13.5 10.9-24 22.9-24 5.7 0 10.2 2.5 12.6 5.4h0.3zm0.8 22.5c0-8.4-5.7-14.6-12.8-14.6-7.3 0-13.3 6.2-13.3 14.6 0 8.3 6 14.4 13.3 14.4 7.1 0 12.8-6.1 12.8-14.4zm147.4-26.1c0 13.4-11.5 21.9-23.1 21.9h-14.7v26.6h-10.5v-70.3h25.2c11.6 0 23.1 8.4 23.1 21.8zm-10.5 0c0-5.5-4.5-12-12.3-12h-15v24.1h15c7.8 0 12.3-6.6 12.3-12.1zm73.9 21.4v27h-10.2v-5.5h-0.3c-2.5 3.8-6.4 6.9-13.4 6.9-9.2 0-17.5-6-17.5-15.4 0-10.4 10.2-15.9 20.3-15.9 5 0 9 1.7 10.9 2.7v-0.7c-0.1-5.8-5.6-9-11-9-3.9 0-7.6 1.2-9.6 5.1l-9.3-3.9c3.2-7.4 11.1-10.7 18.7-10.7 12 0 21.4 6.9 21.4 19.4zm-10.2 8c-2.8-1.4-5-2.4-9.6-2.4-5.1 0-11.1 2.1-11.1 7.5 0 4.3 4.8 6 8.2 6 6.1 0 11.7-4.6 12.5-11.1zm58.7-25.9l-28.8 66.3h-11l10.7-23.7-18.7-42.6h11.3l12.5 30.5h0.3l12.1-30.5zm-106.2-25.3h10.5v70.3h-10.5z"/>
			<g id="&lt;Group&gt;">
				<path id="&lt;Path&gt;" class="s5" d="m60.5 45.5l69.7 69.7v0.8 0.8l-69.7 69.7-0.4-0.4c-1.6-1.7-2.6-4.4-2.6-7.9v-124.4c0-3.5 1-6.1 2.6-7.9z"/>
				<path id="&lt;Path&gt;" class="s6" d="m153.4 140.1l-23.2-23.3v-0.8-0.8l23.2-23.2 0.5 0.3 27.6 15.6c7.8 4.5 7.8 11.8 0 16.2l-27.6 15.7z"/>
				<path id="&lt;Path&gt;" class="s7" d="m71.8 186.4c-4.8 2.8-9.1 2.4-11.7-0.3l70.1-70.1 23.7 23.8z"/>
				<path id="&lt;Path&gt;" class="s8" d="m130.2 116l-70.1-70.1c2.6-2.7 6.9-3.1 11.7-0.3l82.1 46.7z"/>
				<g id="&lt;Group&gt;">
					<path id="&lt;Path&gt;" class="s9" d="m153.9 139.8l-82.1 46.6c-4.6 2.6-8.7 2.5-11.3 0.1l-0.4-0.4 0.4-0.4c2.6 2.3 6.7 2.5 11.3-0.1l81.6-46.4z"/>
					<path id="&lt;Path&gt;" class="s10" d="m60.5 185.7l-0.4 0.4c-1.6-1.7-2.6-4.4-2.6-7.9v-0.8c0 3.5 1 6.1 2.6 7.9z"/>
				</g>
				<path id="&lt;Path&gt;" class="s10" d="m187.4 116c0 2.9-2 5.9-5.9 8.1l-27.6 15.7-0.5-0.6 28.1-15.9c3.5-2 5.5-4.6 5.9-7.3z"/>
				<path id="&lt;Path&gt;" class="s11" d="m57.5 54.6v-0.8c0-9 6.4-12.7 14.3-8.2l109.7 62.3c3.9 2.2 5.9 5.2 5.9 8.1-0.4-2.7-2.4-5.3-5.9-7.3l-109.7-62.3c-7.9-4.5-14.3-0.8-14.3 8.2z"/>
			</g>
		</g>
	</g>
</svg>